<?xml version="1.0" encoding="UTF-8"?>
<!DOCTYPE svg PUBLIC "-//W3C//DTD SVG 1.1//EN" "http://www.w3.org/Graphics/SVG/1.1/DTD/svg11.dtd">
<!-- Creator: CorelDRAW 2019 (64-Bit) -->
<svg xmlns="http://www.w3.org/2000/svg" xml:space="preserve" width="600px" height="170px" version="1.1" style="shape-rendering:geometricPrecision; text-rendering:geometricPrecision; image-rendering:optimizeQuality; fill-rule:evenodd; clip-rule:evenodd"
viewBox="0 0 588.43 167.18"
 xmlns:xlink="http://www.w3.org/1999/xlink">
 <defs>
  <style type="text/css">
   <![CDATA[
    .fil0 {fill:#FEFEFE}
   ]]>
  </style>
 </defs>
 <g id="Слой_x0020_1">
  <metadata id="CorelCorpID_0Corel-Layer"/>
  <g id="_2867285949840">
   <path class="fil0" d="M174.81 33.55l-0.82 5.33 -3.66 6.43 -5.98 4.36 -7.24 1.52 -7.12 -0.02 0 20.24 -15.49 0 0 -71.41 22.67 0 5.28 0.81 6.44 3.65 4.38 5.96 1.54 7.24 0 15.89zm39.63 37.86l15.16 0 -9.58 -24.95 5.03 -5.42 2.37 -7.01 0.12 -2.02 0 -14.35 -1.55 -7.24 -4.38 -5.96 -6.44 -3.65 -5.28 -0.81 -1.21 0 -22.67 0 0 71.41 15.49 0 0 -21.78 5.57 0.02 7.37 21.76zm42.63 -71.41l-7.23 1.56 -5.96 4.38 -3.64 6.44 -0.81 5.28 0 36.1 1.55 7.23 4.38 5.96 6.44 3.65 5.27 0.81 8.29 0 7.23 -1.56 5.96 -4.38 3.64 -6.44 0.81 -5.27 0 -36.1 -1.55 -7.24 -4.38 -5.96 -6.44 -3.65 -5.27 -0.81 -8.29 0zm103.72 0l-7.24 1.56 -5.96 4.38 -3.64 6.44 -0.81 5.28 0 36.1 1.55 7.23 4.38 5.96 6.44 3.65 5.28 0.81 8.28 0 7.23 -1.56 5.97 -4.38 3.63 -6.44 0.81 -5.27 0 -36.1 -1.55 -7.24 -4.38 -5.96 -6.44 -3.65 -5.27 -0.81 -8.28 0zm195.62 0l0 71.41 32.02 0 0 -13.23 -17.36 0 0 -14.53 15.96 0 0 -15.13 -15.96 0 0 -14.32 17.36 0 0 -14.2 -32.02 0zm-24.77 17.72l0 16.79 -1.04 2.49 -2.49 1.03 -6.3 0 0 -23.83 6.3 0 2.49 1.03 1.04 2.49zm-2.72 33.47l7.25 -1.52 5.97 -4.36 3.67 -6.43 0.82 -5.33 0 -15.89 -1.55 -7.24 -4.38 -5.96 -6.44 -3.65 -5.27 -0.81 -22.67 0 0 71.41 15.49 0 0 -20.24 7.11 0.02zm-170.8 2.3l-0.04 -0.6 0 -34.04 1.52 -3.94 3.77 -1.91 0.6 -0.03 3.15 0 3.94 1.52 1.91 3.76 0.03 0.6 0 34.04 -1.52 3.94 -3.76 1.91 -0.6 0.03 -3.15 0 -3.94 -1.52 -1.91 -3.76zm37.67 -53.49l0 13.92 12.78 0 0 57.49 15.03 0 0 -57.49 14.02 0 0 -13.92 -41.83 0zm85.14 42.85l16.98 -42.85 -15.46 0 -9.58 21.43 -8.75 -21.43 -17.82 0 19 42.85 0 28.56 15.63 0 0 -28.56zm-226.53 10.64l-0.03 -0.6 0 -34.04 1.52 -3.94 3.76 -1.91 0.61 -0.03 3.14 0 3.95 1.52 1.91 3.76 0.03 0.6 0 34.04 -1.52 3.94 -3.76 1.91 -0.61 0.03 -3.14 0 -3.95 -1.52 -1.91 -3.76zm-52.9 -15.46l6.3 0 2.49 -1.03 1.04 -2.49 0 -16.79 -1.04 -2.49 -2.49 -1.03 -6.3 0 0 23.83zm90.58 -38.03l0 13.92 12.78 0 0 57.49 15.03 0 0 -57.49 14.02 0 0 -13.92 -41.83 0zm-132.26 17.72l-1.03 -2.49 -2.5 -1.03 -6.3 0 0 23.83 6.3 0 2.5 -1.03 1.03 -2.49 0 -16.79z"/>
   <path class="fil0" d="M302.55 90.19l6.28 0 11.78 29.41 -6.46 0 -2.56 -6.68 -11.76 0 -2.43 6.68 -6.3 0 11.45 -29.41zm269.45 4.98l15.87 0 0 -4.98 -21.81 0 0 29.41 22.37 0 0 -4.95 -16.43 0 0 -8 14.76 0 0 -4.96 -14.76 0 0 -6.52zm-18.04 24.43l5.94 0 0 -29.41 -5.94 0 0 29.41zm-22.03 -29.41l0 11.76c2.23,0 7.89,-0.17 10.31,0.14 3.99,0.49 7.09,2.53 8.05,6.63 1.06,4.55 -1.34,9.56 -6.11,10.54l-4.31 0.34 -8.04 0 -5.84 0 -0.03 -29.41 5.97 0zm0 16.69l0 2.48 0 5.31c0.75,0 8.2,0.2 9.87,-0.33 3.22,-1.03 3.84,-6.03 -0.28,-7.1l-1.82 -0.28 0.53 0.05c-2.55,-0.24 -5.74,-0.13 -8.3,-0.13zm-12.24 -16.69l0 29.41 -5.94 0 0 -12.86 -11.63 0 0 12.86 -5.95 0 0 -29.41 5.95 0 0 11.58 11.63 0 0 -11.58 5.94 0zm-170.64 35.83l0 -11.35 -2.6 0 0 -24.48 -20.32 0 0 3.11 -0.01 1.5 -0.01 1.44 -0.03 1.4 -0.04 1.34 -0.06 1.29 -0.06 1.23 -0.08 1.18 -0.09 1.13 -0.09 1.08 -0.11 1.02 -0.13 0.98 -0.16 0.97 -0.17 0.93 -0.21 0.91 -0.23 0.89 -0.24 0.86 -0.29 0.85 -0.3 0.81 -0.33 0.79 -0.35 0.77 -2.48 0 0 11.35 4.93 0 0 -6.42 18.52 0 0 6.42 4.94 0zm87.98 -35.83l0 29.41 5.93 0 11.9 -19.19 0 19.19 5.56 0 0 -29.41 -5.92 0 -11.92 19.58 0 -19.58 -5.55 0zm48.42 28.87l0.4 -0.14 0.4 -0.14 0.37 -0.17 0.36 -0.18 0.35 -0.2 0.33 -0.22 0.32 -0.23 0.29 -0.25 0.29 -0.27 0.28 -0.28 0.26 -0.3 0.25 -0.31 0.23 -0.32 0.22 -0.34 0.21 -0.36 0.19 -0.37 0.18 -0.38 0.16 -0.39 0.14 -0.38 0.13 -0.38 0.09 -0.39 0.09 -0.4 0.07 -0.39 0.04 -0.39 0.03 -0.41 0.01 -0.39 -0.02 -0.51 -0.04 -0.49 -0.07 -0.47 -0.1 -0.47 -0.13 -0.45 -0.16 -0.43 -0.19 -0.42 -0.22 -0.41 -0.24 -0.4 -0.28 -0.38 -0.29 -0.37 -0.33 -0.35 -0.35 -0.32 -0.38 -0.3 -0.4 -0.28 -0.43 -0.25 -0.45 -0.24 -0.47 -0.2 -0.5 -0.2 -0.53 -0.16 0.38 -0.19 0.35 -0.2 0.34 -0.21 0.33 -0.23 0.31 -0.25 0.29 -0.27 0.28 -0.29 0.26 -0.29 0.25 -0.33 0.23 -0.33 0.21 -0.35 0.19 -0.36 0.17 -0.36 0.14 -0.37 0.13 -0.37 0.1 -0.38 0.08 -0.4 0.05 -0.39 0.04 -0.4 0 -0.41 0 -0.38 -0.03 -0.38 -0.04 -0.36 -0.07 -0.35 -0.08 -0.35 -0.1 -0.34 -0.12 -0.33 -0.13 -0.33 -0.15 -0.32 -0.18 -0.31 -0.18 -0.3 -0.2 -0.29 -0.2 -0.27 -0.21 -0.27 -0.22 -0.25 -0.23 -0.24 -0.24 -0.23 -0.25 -0.21 -0.26 -0.21 -0.27 -0.18 -0.27 -0.18 -0.28 -0.17 -0.29 -0.15 -0.3 -0.14 -0.3 -0.13 -0.31 -0.11 -0.32 -0.11 -0.32 -0.09 -0.33 -0.07 -0.34 -0.07 -0.36 -0.06 -0.4 -0.05 -0.43 -0.04 -0.47 -0.04 -0.5 -0.03 -0.54 -0.02 -0.58 -0.02 -0.6 -0.02 -0.65 -0.01 -0.68 0 -11.76 0 0 29.41 10.01 0 1.1 0 1.01 -0.02 0.92 -0.01 0.84 -0.02 0.76 -0.02 0.67 -0.02 0.6 -0.02 0.5 -0.03 0.42 -0.02 0.34 -0.04 0.47 -0.06 0.45 -0.08 0.44 -0.09 0.42 -0.11zm-103.06 -28.87l0 29.41 5.94 0 11.89 -19.19 0 19.19 5.57 0 0 -29.41 -5.93 0 -11.91 19.58 0 -19.58 -5.56 0zm-4.07 35.83l0 -11.35 -2.59 0 0 -24.48 -20.33 0 0 3.11 0 1.5 -0.02 1.44 -0.03 1.4 -0.04 1.34 -0.05 1.29 -0.06 1.23 -0.08 1.18 -0.09 1.13 -0.1 1.08 -0.11 1.02 -0.13 0.98 -0.15 0.97 -0.18 0.93 -0.2 0.91 -0.23 0.89 -0.26 0.86 -0.27 0.85 -0.31 0.81 -0.32 0.79 -0.35 0.77 -2.49 0 0 11.35 4.93 0 0 -6.42 18.52 0 0 6.42 4.94 0zm-17.26 -30.89l8.75 0 0 19.54 -11.18 0 0.47 -1.3 0.41 -1.45 0.36 -1.59 0.32 -1.73 0.26 -1.89 0.23 -2.02 0.16 -2.17 0.13 -2.32 0.07 -2.46 0.02 -2.61zm48.68 -4.94l0 4.98 8.73 0 0 24.43 5.93 0 0 -24.43 8.71 0 0 -4.98 -23.37 0zm67.26 11.7l0.61 0 0.56 -0.01 0.52 -0.01 0.45 -0.01 0.41 -0.01 0.35 -0.01 0.3 -0.02 0.25 -0.02 0.19 -0.01 0.3 -0.04 0.29 -0.06 0.27 -0.07 0.26 -0.09 0.25 -0.09 0.23 -0.12 0.22 -0.13 0.21 -0.13 0.19 -0.16 0.18 -0.17 0.17 -0.18 0.15 -0.19 0.13 -0.2 0.11 -0.21 0.09 -0.23 0.09 -0.23 0.06 -0.25 0.04 -0.25 0.03 -0.27 0.01 -0.29 -0.01 -0.26 -0.02 -0.26 -0.04 -0.24 -0.05 -0.25 -0.07 -0.22 -0.08 -0.22 -0.1 -0.21 -0.12 -0.19 -0.12 -0.19 -0.15 -0.17 -0.16 -0.17 -0.17 -0.15 -0.19 -0.13 -0.2 -0.12 -0.21 -0.11 -0.23 -0.1 -0.25 -0.08 -0.26 -0.07 -0.27 -0.06 -0.29 -0.04 -0.21 -0.02 -0.28 -0.02 -0.34 -0.02 -0.41 -0.01 -0.47 -0.01 -0.55 -0.01 -0.6 -0.01 -0.68 0 -0.74 0 -4.21 0 0 6.8 4.56 0zm1.74 4.91l-0.72 -0.01 -0.79 -0.01 -4.79 0 0 7.87 5.5 0 0.61 0 0.58 -0.01 0.52 -0.01 0.48 -0.01 0.43 -0.02 0.38 -0.02 0.34 -0.02 0.29 -0.03 0.24 -0.03 0.2 -0.03 0.26 -0.06 0.25 -0.07 0.24 -0.08 0.23 -0.09 0.22 -0.12 0.21 -0.12 0.21 -0.14 0.18 -0.15 0.18 -0.17 0.18 -0.18 0.15 -0.19 0.15 -0.2 0.12 -0.22 0.11 -0.23 0.09 -0.25 0.07 -0.26 0.07 -0.26 0.04 -0.28 0.02 -0.3 0.01 -0.3 0 -0.27 -0.03 -0.25 -0.03 -0.24 -0.04 -0.24 -0.06 -0.23 -0.07 -0.22 -0.09 -0.21 -0.09 -0.2 -0.11 -0.21 -0.12 -0.18 -0.14 -0.18 -0.14 -0.17 -0.16 -0.16 -0.17 -0.15 -0.18 -0.14 -0.19 -0.13 -0.2 -0.12 -0.22 -0.11 -0.22 -0.09 -0.24 -0.09 -0.27 -0.09 -0.33 -0.07 -0.38 -0.06 -0.45 -0.05 -0.5 -0.05 -0.55 -0.04 -0.61 -0.03 -0.67 -0.02zm-6.3 7.85l0 0 0 0zm-140.65 -19.52l8.75 0 0 19.54 -11.18 0 0.46 -1.3 0.42 -1.45 0.36 -1.59 0.31 -1.73 0.27 -1.89 0.22 -2.02 0.17 -2.17 0.12 -2.32 0.08 -2.46 0.02 -2.61zm-22.11 12.84l-4.06 -10.92 -3.97 10.92 8.03 0z"/>
   <path class="fil0" d="M316.4 166.69l0 -24.45 -8.73 0 0 -4.97 23.38 0 0 4.97 -8.71 0 0 24.45 -5.94 0zm248.63 -29.42l0 29.42 5.95 0 11.9 -19.21 0 19.21 5.55 0 0 -29.42 -5.92 0 -11.91 19.58 0 -19.58 -5.57 0zm-29.53 0l0 29.42 5.94 0 11.9 -19.21 0 19.21 5.56 0 0 -29.42 -5.92 0 -11.92 19.58 0 -19.58 -5.56 0zm-128.21 16.55l0 12.87 5.94 0 0 -29.42 -5.94 0 0 11.58 -11.64 0 0 -11.58 -5.93 0 0 29.42 5.93 0 0 -12.87 11.64 0zm-40.1 -16.55l-6.95 0 9.11 14.06 -10.05 15.36 7.12 0 6.54 -10.18 6.52 10.18 7.16 0 -10.05 -15.13 9.15 -14.29 -6.88 0 -5.78 9.45 -5.89 -9.45zm50.99 14l-0.02 0.89 0.04 1.37 0.12 1.32 0.2 1.25 0.26 1.19 0.35 1.14 0.43 1.07 0.5 1.01 0.59 0.95 0.65 0.89 0.74 0.83 0.8 0.77 0.86 0.67 0.9 0.61 0.96 0.51 1.02 0.45 1.07 0.36 1.12 0.27 1.19 0.2 1.23 0.13 1.28 0.03 1.27 -0.03 1.22 -0.13 1.17 -0.2 1.11 -0.28 1.06 -0.36 1.01 -0.44 0.95 -0.52 0.91 -0.61 0.85 -0.69 0.8 -0.76 0.74 -0.83 0.66 -0.9 0.58 -0.96 0.5 -1.02 0.43 -1.09 0.35 -1.14 0.27 -1.21 0.19 -1.26 0.12 -1.34 0.04 -1.39 -0.04 -1.4 -0.12 -1.35 -0.19 -1.28 -0.27 -1.21 -0.36 -1.16 -0.43 -1.09 -0.51 -1.03 -0.58 -0.96 -0.66 -0.9 -0.74 -0.84 -0.81 -0.76 -0.86 -0.69 -0.91 -0.61 -0.97 -0.52 -1.01 -0.44 -1.07 -0.36 -1.11 -0.29 -1.17 -0.2 -1.22 -0.12 -1.28 -0.04 -0.71 0.01 -0.69 0.03 -0.68 0.07 -0.66 0.07 -0.64 0.11 -0.62 0.13 -0.61 0.15 -0.6 0.17 -0.57 0.2 -0.56 0.22 -0.41 0.18 -0.4 0.21 -0.4 0.22 -0.39 0.23 -0.39 0.26 -0.37 0.27 -0.37 0.29 -0.36 0.32 -0.36 0.32 -0.35 0.35 -0.34 0.36 -0.32 0.37 -0.31 0.38 -0.3 0.4 -0.29 0.39 -0.26 0.41 -0.25 0.42 -0.24 0.42 -0.22 0.44 -0.21 0.45 -0.25 0.62 -0.23 0.65 -0.2 0.69 -0.18 0.71 -0.15 0.74 -0.12 0.77 -0.09 0.79 -0.07 0.83 -0.04 0.85zm6.13 1.66l-0.03 -0.97 0.03 -0.99 0.06 -0.94 0.12 -0.89 0.15 -0.84 0.21 -0.78 0.24 -0.73 0.29 -0.69 0.34 -0.63 0.38 -0.58 0.43 -0.53 0.47 -0.48 0.49 -0.43 0.52 -0.37 0.55 -0.33 0.57 -0.28 0.61 -0.22 0.64 -0.18 0.66 -0.12 0.69 -0.08 0.72 -0.03 0.72 0.03 0.69 0.08 0.66 0.12 0.63 0.17 0.61 0.23 0.58 0.27 0.54 0.33 0.51 0.36 0.49 0.43 0.46 0.47 0.42 0.53 0.38 0.57 0.33 0.63 0.29 0.67 0.24 0.73 0.2 0.78 0.15 0.83 0.12 0.89 0.06 0.93 0.03 0.98 -0.03 1.01 -0.06 0.94 -0.12 0.9 -0.15 0.84 -0.21 0.8 -0.25 0.74 -0.3 0.69 -0.34 0.64 -0.38 0.58 -0.44 0.54 -0.47 0.49 -0.49 0.43 -0.52 0.38 -0.55 0.34 -0.56 0.28 -0.6 0.23 -0.62 0.18 -0.65 0.13 -0.67 0.08 -0.7 0.02 -0.69 -0.02 -0.68 -0.08 -0.65 -0.13 -0.62 -0.18 -0.6 -0.23 -0.57 -0.29 -0.55 -0.33 -0.53 -0.39 -0.49 -0.44 -0.47 -0.49 -0.45 -0.54 -0.39 -0.59 -0.35 -0.63 -0.3 -0.69 -0.25 -0.73 -0.21 -0.78 -0.16 -0.83 -0.12 -0.88 -0.06 -0.93zm24.67 9.14l0 4.59 0.53 0.05 0.5 0.03 0.47 0.03 0.43 0.03 0.4 0.02 0.36 0.01 0.33 0.01 0.29 0.02 0.26 0 0.23 0 0.57 -0.01 0.55 -0.03 0.52 -0.06 0.48 -0.09 0.45 -0.1 0.42 -0.13 0.39 -0.16 0.36 -0.18 0.33 -0.2 0.29 -0.23 0.27 -0.24 0.25 -0.27 0.22 -0.29 0.21 -0.3 0.19 -0.33 0.16 -0.34 0.14 -0.36 0.13 -0.38 0.1 -0.4 0.08 -0.42 0.07 -0.46 0.07 -0.52 0.05 -0.6 0.05 -0.65 0.03 -0.72 0.04 -0.78 0.03 -0.86 0.01 -0.92 0.01 -0.98 0 -13.61 8.85 0 0 24.45 5.94 0 0 -29.42 -20.6 0 0 16.8 0.02 5.05 -0.01 0.38 -0.02 0.35 -0.03 0.32 -0.05 0.29 -0.05 0.26 -0.07 0.23 -0.08 0.21 -0.1 0.17 -0.11 0.15 -0.13 0.11 -0.13 0.09 -0.17 0.09 -0.19 0.07 -0.21 0.07 -0.24 0.06 -0.27 0.04 -0.28 0.03 -0.31 0.03 -0.34 0.02 -0.36 0 -1.33 -0.02zm30 -10.8l-0.02 0.89 0.04 1.37 0.12 1.32 0.19 1.25 0.27 1.19 0.35 1.14 0.42 1.07 0.51 1.01 0.58 0.95 0.66 0.89 0.73 0.83 0.8 0.77 0.86 0.67 0.91 0.61 0.96 0.51 1.02 0.45 1.07 0.36 1.12 0.27 1.18 0.2 1.23 0.13 1.29 0.03 1.26 -0.03 1.22 -0.13 1.17 -0.2 1.12 -0.28 1.05 -0.36 1.01 -0.44 0.96 -0.52 0.9 -0.61 0.86 -0.69 0.8 -0.76 0.74 -0.83 0.66 -0.9 0.58 -0.96 0.49 -1.02 0.43 -1.09 0.35 -1.14 0.28 -1.21 0.19 -1.26 0.11 -1.34 0.04 -1.39 -0.04 -1.4 -0.12 -1.35 -0.19 -1.28 -0.27 -1.21 -0.35 -1.16 -0.43 -1.09 -0.51 -1.03 -0.59 -0.96 -0.66 -0.9 -0.74 -0.84 -0.81 -0.76 -0.86 -0.69 -0.9 -0.61 -0.97 -0.52 -1.01 -0.44 -1.07 -0.36 -1.12 -0.29 -1.17 -0.2 -1.22 -0.12 -1.27 -0.04 -0.72 0.01 -0.69 0.03 -0.68 0.07 -0.65 0.07 -0.65 0.11 -0.62 0.13 -0.61 0.15 -0.59 0.17 -0.58 0.2 -0.56 0.22 -0.41 0.18 -0.4 0.21 -0.39 0.22 -0.4 0.23 -0.38 0.26 -0.38 0.27 -0.36 0.29 -0.37 0.32 -0.36 0.32 -0.35 0.35 -0.33 0.36 -0.33 0.37 -0.31 0.38 -0.3 0.4 -0.28 0.39 -0.26 0.41 -0.26 0.42 -0.24 0.42 -0.22 0.44 -0.2 0.45 -0.26 0.62 -0.23 0.65 -0.2 0.69 -0.17 0.71 -0.16 0.74 -0.11 0.77 -0.1 0.79 -0.07 0.83 -0.03 0.85zm6.13 1.66l-0.03 -0.97 0.02 -0.99 0.07 -0.94 0.11 -0.89 0.16 -0.84 0.2 -0.78 0.25 -0.73 0.29 -0.69 0.34 -0.63 0.38 -0.58 0.43 -0.53 0.46 -0.48 0.49 -0.43 0.52 -0.37 0.55 -0.33 0.58 -0.28 0.61 -0.22 0.63 -0.18 0.67 -0.12 0.69 -0.08 0.72 -0.03 0.72 0.03 0.69 0.08 0.66 0.12 0.63 0.17 0.6 0.23 0.58 0.27 0.55 0.33 0.51 0.36 0.49 0.43 0.46 0.47 0.42 0.53 0.37 0.57 0.33 0.63 0.29 0.67 0.25 0.73 0.2 0.78 0.16 0.83 0.11 0.89 0.06 0.93 0.02 0.98 -0.02 1.01 -0.07 0.94 -0.11 0.9 -0.16 0.84 -0.21 0.8 -0.25 0.74 -0.29 0.69 -0.34 0.64 -0.39 0.58 -0.44 0.54 -0.46 0.49 -0.5 0.43 -0.52 0.38 -0.54 0.34 -0.57 0.28 -0.6 0.23 -0.62 0.18 -0.64 0.13 -0.68 0.08 -0.69 0.02 -0.7 -0.02 -0.67 -0.08 -0.65 -0.13 -0.62 -0.18 -0.61 -0.23 -0.57 -0.29 -0.55 -0.33 -0.52 -0.39 -0.5 -0.44 -0.47 -0.49 -0.44 -0.54 -0.39 -0.59 -0.35 -0.63 -0.3 -0.69 -0.25 -0.73 -0.21 -0.78 -0.16 -0.83 -0.11 -0.88 -0.07 -0.93zm27.31 13.76l0 -29.42 19.93 0 0 4.94 -13.98 0 0 24.48 -5.95 0zm-177.54 -29.42l0 29.42 22.37 0 0 -4.96 -16.44 0 0 -8.01 14.77 0 0 -4.95 -14.77 0 0 -6.53 15.88 0 0 -4.97 -21.81 0z"/>
  </g>
  <path class="fil0" d="M74.7 143.24l4.76 20.55 -12.6 0 7.84 -20.55zm-46.31 -24.98l4.17 5.63c1.34,1.74 2.84,3.96 4.19,5.71 1.36,1.77 2.8,3.87 4.16,5.67 2.06,2.72 4.18,5.8 6.25,8.53 0.72,0.95 1.37,1.91 2.1,2.86 1.34,1.74 2.84,3.97 4.19,5.7l2.09 2.86c0.7,0.98 1.39,1.9 2.09,2.86 1.41,1.92 2.8,3.79 4.17,5.68l-37.37 0.03 3.96 -45.53zm37.73 39.17l-0.16 -17.82 6.99 -0.01c-0.51,1.48 -1.13,2.97 -1.68,4.43 -0.58,1.52 -1.13,2.98 -1.72,4.49 -1.16,2.97 -2.23,6 -3.43,8.91zm10.69 -18.45l3.01 -1.43 0.02 14.63c-0.52,-2.15 -1.04,-4.38 -1.54,-6.57 -0.49,-2.17 -1.1,-4.46 -1.49,-6.63zm11.08 -8.64l4.86 -35.55c0.17,0.19 0.78,3.08 0.83,3.28 0.27,1.12 0.52,2.22 0.79,3.35 0.52,2.21 1.06,4.41 1.57,6.64 0.5,2.22 1.05,4.41 1.56,6.64 0.25,1.12 0.53,2.23 0.79,3.35 0.18,0.81 0.74,2.67 0.76,3.4 -0.22,0.1 -1.15,0.89 -1.41,1.1 -0.48,0.38 -0.94,0.74 -1.4,1.11l-8.35 6.68zm-31.68 -9.59l25.73 12.72 -0.21 0.11c-0.64,0.24 -0.64,0.1 -1.69,0.63 -0.7,0.35 -5.09,2.47 -5.5,2.47l-9.08 0c-0.23,0 -0.44,-0.53 -0.66,-0.93 -0.2,-0.35 -0.37,-0.66 -0.57,-1l-3.45 -6c-0.44,-0.76 -4.27,-7.35 -4.57,-8zm-23 -0.95l11.18 7.17c1.26,0.81 2.49,1.62 3.74,2.4l11.17 7.18c0.57,0.37 3.45,2.16 3.72,2.43l0.08 21.59 -6.45 -8.78c-3.66,-5.09 -7.57,-10.23 -11.24,-15.32 -2.75,-3.83 -5.7,-7.69 -8.45,-11.53 -0.62,-0.86 -1.27,-1.7 -1.89,-2.56l-1.86 -2.58zm0.75 -3.04c0.83,-0.01 14.94,1.57 17.04,1.77 0.8,0.08 0.5,-0.02 1.33,1.38 1.33,2.26 2.62,4.56 3.93,6.84 0.29,0.51 3.78,6.49 3.91,6.87 -1.07,-0.65 -2.17,-1.37 -3.26,-2.08l-6.54 -4.22c-1.08,-0.68 -2.22,-1.38 -3.28,-2.11 -1.07,-0.72 -2.19,-1.41 -3.29,-2.1 -0.71,-0.46 -9.41,-6.01 -9.84,-6.35zm-3.89 -17.72l1.12 0.98c0.24,0.21 0.33,0.32 0.56,0.5l2.79 2.53c0.31,0.32 0.8,0.68 1.14,1 0.37,0.37 0.72,0.69 1.11,1.01l10.12 9.12c0.21,0.17 0.34,0.34 0.55,0.51 0.21,0.16 0.44,0.36 0.58,0.57l-19.19 -2 1.22 -14.22zm-20.14 9.4l11.1 55.33 -7.6 0.02c-0.77,-13.81 -1.79,-27.71 -2.65,-41.54 -0.07,-1.04 -0.93,-13.14 -0.85,-13.81zm21.34 -12.31c0.14,-0.17 1.52,-1.08 1.79,-1.26 3.1,-2.05 6.2,-4.27 9.29,-6.31 0.53,-0.35 3.45,-2.41 3.73,-2.5l4.31 27.27c-0.28,-0.17 -0.46,-0.33 -0.66,-0.54l-5.92 -5.34c-0.23,-0.19 -0.37,-0.35 -0.59,-0.54l-11.95 -10.78zm-21.47 -3.24l8.6 11.71c0.75,0.96 1.42,1.96 2.15,2.92l4.82 6.58c0.26,0.36 0.42,0.39 0.37,0.93l-1.85 21.1c-0.27,3.13 -0.53,6.26 -0.81,9.39 -0.14,1.56 -0.28,3.11 -0.41,4.67 -0.13,1.53 -0.32,3.14 -0.4,4.67 -0.21,-0.47 -2.96,-14.54 -3.15,-15.47 -2.62,-12.9 -5.14,-25.85 -7.78,-38.75l-1.54 -7.75zm91 -2.37l11.9 3.35 -10.76 22.2c-0.19,-2.08 -0.21,-4.29 -0.31,-6.38 -0.06,-1.35 -0.92,-18.68 -0.83,-19.17zm-16.04 41.06c-0.4,-0.11 -1.41,-0.68 -1.86,-0.9l-9.22 -4.57c-1.22,-0.6 -2.51,-1.18 -3.69,-1.82 -2.39,-1.3 -5,-2.36 -7.36,-3.66 -1.23,-0.67 -6.63,-3.19 -7.36,-3.66l10.95 -8.42c0.73,-0.57 1.46,-1.14 2.2,-1.69 1.46,-1.06 2.93,-2.27 4.39,-3.37l17.63 -13.5 -5.68 41.59zm9.62 -42.85l3.42 0.94 0.74 16.49 -4.16 -17.43zm-33.27 20.03l0.5 -0.63c0.17,-0.22 0.32,-0.41 0.52,-0.67l9.62 -12.12c0.7,-0.88 1.42,-1.82 2.13,-2.69l4.29 -5.37 10.16 0.58c-0.22,0.24 -0.55,0.47 -0.84,0.68l-2.55 1.96c-1.13,0.87 -2.26,1.72 -3.4,2.61l-20.43 15.65zm-52.31 -22.21l3.46 -5.89 0.19 0.33c0.05,0.12 0.1,0.24 0.14,0.36l0.86 2.15c0.39,0.98 0.76,1.93 1.16,2.91 0.79,1.92 1.54,3.87 2.32,5.82 0.17,0.44 4.51,11.19 4.63,11.67 -0.28,-0.24 -6.24,-8.44 -6.39,-8.66l-6.37 -8.69zm91.72 -1.67c0.48,0.26 1.06,0.69 1.53,1.03 0.52,0.37 1.05,0.71 1.56,1.07 1.01,0.72 2.02,1.39 3.04,2.11l-6.03 -1.67 -0.1 -2.54zm-4.74 1.18c0.15,-0.22 1.68,-1.27 1.79,-1.32l0.08 1.84 -1.87 -0.52zm-46.82 -0.49l25.59 1.49c-0.15,0.27 -0.41,0.57 -0.62,0.82l-0.67 0.84c-4.77,6.09 -9.79,12.22 -14.52,18.3l-3.96 4.99c-0.28,0.35 -1.08,1.43 -1.35,1.65l-4.47 -28.09zm-31.82 -0.73c0.22,0.12 1.95,2.16 2.03,2.26 0.09,0.11 0.16,0.16 0.25,0.26l2.24 2.58c0.82,1.03 2.12,2.35 2.98,3.41l1.73 1.97c1.23,1.44 1.01,0.82 0.84,2.73 -0.06,0.65 -0.11,1.31 -0.17,1.96 -0.15,1.77 -0.48,6.48 -0.69,7.88l-9.21 -23.05zm75.6 -0.29c-0.01,0.01 -0.03,0.03 -0.03,0.04 -0.01,0 -0.03,0.02 -0.04,0.03 -0.01,0.01 -0.03,0.02 -0.04,0.03 -0.01,0.01 -0.03,0.02 -0.04,0.03 -0.04,0.03 -0.07,0.05 -0.11,0.08 -0.09,0.06 -0.12,0.08 -0.22,0.15 -0.21,0.16 -0.21,0.22 -0.55,0.21 -0.49,-0.01 -1.04,-0.06 -1.53,-0.12l2.56 -0.45zm-60.26 7.18c-0.01,-0.24 4.75,-10.48 4.97,-10.96 0.85,-1.82 1.65,-3.67 2.52,-5.49 0.44,-0.92 0.86,-1.82 1.27,-2.74 0.21,-0.48 0.42,-0.9 0.63,-1.37 0.11,-0.25 0.19,-0.44 0.32,-0.69 0.05,-0.12 0.1,-0.23 0.15,-0.35l0.23 -0.33 2.93 13.05c-0.43,0.38 -1.1,0.76 -1.61,1.11l-9.8 6.68c-0.53,0.37 -1.09,0.76 -1.61,1.09zm69.8 -9.27l11.1 -3.37 -0.03 11.02c-0.22,-0.05 -4.92,-3.35 -5.53,-3.77 -0.93,-0.64 -1.86,-1.27 -2.77,-1.92 -0.45,-0.32 -0.92,-0.62 -1.38,-0.95 -0.41,-0.29 -1.1,-0.69 -1.39,-1.01zm-21.12 -2.6c1.56,0.22 3.39,0.66 4.96,0.99 0.74,0.16 4.51,0.86 4.87,1.03l-11.27 1.98 1.44 -4zm-22.44 3.34c0.07,-0.06 0.04,-0.04 0.16,-0.09l9.48 -1.55c0.86,-0.14 8.99,-1.51 9.62,-1.54l-1.49 4.22 -17.77 -1.04zm-47.67 -19.43c0.12,1.16 0.03,9.16 0.03,11.25 0,0.61 0.13,1.67 -0.14,2.11l-1.69 2.77 1.8 -16.13zm17.36 29.5c-0.32,-0.52 -3.49,-3.98 -4.12,-4.77 -0.62,-0.78 -1.91,-2.11 -2.54,-2.9 -0.27,-0.34 -0.53,-0.6 -0.82,-0.94 -0.15,-0.17 -0.24,-0.27 -0.41,-0.47 -0.13,-0.14 -0.31,-0.33 -0.44,-0.49 -1.48,-1.8 -3.64,-4.05 -5.03,-5.8 0.2,-0.17 16.97,-6.76 18.76,-7.47l6.29 -2.48c-0.09,0.36 -2.67,5.89 -2.88,6.33 -0.99,2.11 -1.91,4.25 -2.92,6.35l-2.9 6.3c-0.49,1.07 -0.99,2.12 -1.46,3.18l-1.36 2.97c-0.11,0.16 0.05,-0.06 -0.06,0.08 -0.11,0.14 0.03,0 -0.11,0.11zm45.78 -15.62l-25.91 4.19 -3.26 -14.35c0.73,0.18 6.37,2.21 7.33,2.53 2.43,0.83 4.85,1.69 7.3,2.54l10.92 3.8c0.63,0.22 1.19,0.41 1.81,0.63 0.28,0.1 1.57,0.5 1.81,0.66zm-27.66 -12.84c0.01,-0.01 0.02,-0.02 0.03,-0.03l26.67 -16.12c0.49,-0.3 3.54,-2.2 3.78,-2.24l1.61 29.63 -32.17 -11.16 0.08 -0.08zm-32.52 -24.14c0.22,0.11 1.78,1.6 2.15,1.91l2.01 1.87c0.74,0.62 1.74,1.63 2.46,2.24l5.71 5.25c0.14,0.14 0.28,0.24 0.44,0.38l13.08 12.03c0.16,0.15 0.25,0.18 0.39,0.38l-26.24 10.38 0 -34.44zm98.37 35.67l-12.35 3.72 -5.14 -26.16c0.06,0.05 0.04,0.03 0.11,0.1 0.01,0.01 0.05,0.05 0.06,0.06l9.71 12.46c0.39,0.49 0.71,0.94 1.1,1.41 0.34,0.43 6.39,8.14 6.51,8.41zm-0.28 -5.21c-0.34,-0.32 -2.39,-3.05 -2.88,-3.66 -1.59,-1.98 -3.16,-4.12 -4.73,-6.06 -1.88,-2.32 -3.81,-4.97 -5.7,-7.32l-1.87 -2.43c0.46,0.12 1.08,0.44 1.54,0.63l4.57 1.94c1.01,0.44 2.01,0.86 3.04,1.29l2.28 0.97c0.14,0.06 0.27,0.11 0.4,0.17 0.2,0.08 0.23,0.06 0.3,0.19l1.54 7.18c0.26,1.18 0.52,2.38 0.76,3.56 0.24,1.17 0.55,2.37 0.75,3.54zm-29.91 -17.04c0.66,1.25 1.32,2.4 1.99,3.65 0.65,1.24 1.3,2.47 1.99,3.7 0.69,1.22 1.3,2.45 1.98,3.67l3.98 7.35c0.96,1.81 2.09,3.78 2.99,5.53 0.27,0.53 0.8,1.36 0.98,1.89 -1.57,-0.26 -3.22,-0.65 -4.78,-0.96 -2.97,-0.59 -6.54,-1.27 -9.44,-1.91 -0.32,-0.07 -0.28,-0.04 -0.3,-0.42 -0.01,-0.23 -0.02,-0.46 -0.03,-0.69 -0.03,-0.44 -0.05,-0.87 -0.07,-1.31l-1.17 -21.49c-0.05,-0.81 -0.17,-1.92 -0.13,-2.69 0.2,0.22 1.74,3.16 2.01,3.68zm11.4 -9.08c1.04,-0.33 11.22,-2.89 11.49,-2.83l3.01 10.99c-0.5,-0.13 -9.95,-4.2 -10.87,-4.59 -0.52,-0.23 -3.32,-1.35 -3.56,-1.56l-0.07 -2.01zm1.98 27.64c-0.98,-1.58 -2.63,-4.94 -3.7,-6.82 -0.64,-1.12 -1.24,-2.25 -1.85,-3.41 -1.79,-3.4 -3.8,-6.9 -5.53,-10.25 -0.4,-0.77 -3.62,-6.62 -3.65,-6.84l9.83 0.03c0.05,1.34 0.02,2.52 0.28,3.79l3.98 20.15c0.2,1 0.54,2.36 0.64,3.35zm-29.43 -23.13c-2.46,1.5 -4.91,2.97 -7.38,4.46 -0.62,0.38 -13.98,8.52 -14.73,8.88l-3.83 -19.74 33.26 1.93c-0.09,0.17 -6.58,4.03 -7.32,4.47zm47.94 -3.69l-3.31 5.99 -2.38 -8.73 5.69 2.74zm-107.21 28.84c-0.97,-6.64 -1.81,-13.3 -2.73,-19.95 -0.23,-1.67 -0.46,-3.34 -0.69,-5.01 -0.11,-0.83 -0.25,-1.66 -0.34,-2.49 -0.04,-0.3 0.02,-0.3 0.21,-0.45l4.26 -3.5c0.25,-0.21 2.9,-2.41 3.11,-2.5 -0.25,2.8 -0.63,5.67 -0.95,8.48 -0.32,2.82 -0.63,5.67 -0.95,8.49l-1.92 16.93zm75.68 -32.28c0.25,-0.29 0.72,-0.62 1.03,-0.86l7.14 -5.71 -0.08 6.58 -8.09 -0.01zm-37.65 -1.94c0.27,-0.2 10.24,-4.31 10.85,-4.57 0.97,-0.41 10,-4.24 10.83,-4.51l3.25 4.07c0.35,0.46 0.71,0.91 1.05,1.34 0.43,0.55 3.97,4.96 4.25,5.44l-30.23 -1.77zm48.76 -5.26c0.41,0.11 1.66,0.89 2.14,1.15l4.2 2.32c0.64,0.33 1.54,0.8 2.09,1.19l-8.51 2.12 0.08 -6.78zm-52.97 25.9c-0.33,-0.23 -1.15,-1.06 -1.45,-1.32l-7.36 -6.74c-0.43,-0.45 -1.02,-0.86 -1.47,-1.34 -0.41,-0.44 -1.06,-0.89 -1.47,-1.35 -0.58,-0.62 -3,-2.65 -3.7,-3.38 -0.29,-0.3 -0.47,-0.4 -0.72,-0.65l-7.27 -6.71c-0.01,-0.02 -0.02,-0.02 -0.03,-0.04 0.7,0.06 4.06,0.66 5.02,0.82l14.69 2.41c0.26,0.08 0.1,0 0.22,0.13l3.12 15.95c0.13,0.69 0.34,1.54 0.42,2.22zm67.73 -35.63l0.13 0.27c0.04,0.11 0.05,0.18 0.09,0.29 0.05,0.18 0.1,0.35 0.16,0.53 0.1,0.34 0.22,0.7 0.33,1.05l3.92 12.67c0.18,0.59 0.54,1.55 0.63,2.12l-6.07 -2.95 0.81 -13.98zm-97.34 3.06l0 8.11 -4.99 4.08c-0.24,0.18 -0.46,0.42 -0.7,0.53l5.69 -12.72zm67.47 13.24c-0.2,-0.2 -0.36,-0.43 -0.54,-0.66 -0.8,-1.01 -7.44,-9.37 -7.54,-9.64l18.08 2.25c-0.05,0.17 -0.42,0.41 -0.59,0.55l-6.88 5.52c-0.36,0.3 -2.25,1.88 -2.53,1.98zm-34.54 -12.15l16.61 1.02c-0.44,0.28 -4.12,1.76 -4.94,2.1l-9.9 4.14c-1.62,0.68 -3.3,1.42 -4.94,2.04l3.17 -9.3zm-24.86 7.26c0.02,-0.01 0.03,-0.02 0.04,-0.02l1.29 -0.42c0.44,-0.14 0.88,-0.27 1.34,-0.41 0.9,-0.27 1.78,-0.54 2.7,-0.82l10.77 -3.25c0.74,-0.23 4.99,-1.59 5.37,-1.57l-3.22 9.52 -18.29 -3.03zm33.18 -31.59c0.11,0.1 0.01,-0.01 0.12,0.12l12.05 22.54 -19.5 -1.2 7.33 -21.46zm42.3 27.09c0.27,-0.37 1.6,-1.7 2.08,-2.2 0.12,-0.13 0.21,-0.23 0.34,-0.36 1.05,-1.02 1.81,-1.9 2.81,-2.82 0.12,-0.12 0.21,-0.23 0.33,-0.35l2.78 -2.86c0.48,-0.5 0.91,-0.95 1.38,-1.44 0.23,-0.25 0.47,-0.44 0.7,-0.68 0.23,-0.25 0.41,-0.44 0.68,-0.68l-0.98 16.96 -10.12 -5.57zm-80.62 -9.97c0.01,-0.36 0.09,-0.37 0.27,-0.56l1.21 -1.23c0.51,-0.56 1.05,-1.08 1.57,-1.63l3.16 -3.27 -4.61 10.78c-0.27,0.6 -0.51,1.19 -0.78,1.79 -0.13,0.3 -0.25,0.6 -0.39,0.92 -0.07,0.15 -0.12,0.29 -0.19,0.44l-0.23 0.43c-0.05,-2.37 -0.01,-5.24 -0.01,-7.67zm86.13 0.11c-0.45,0.43 -6.8,6.88 -7.03,7.21 -0.23,-0.21 -0.57,-2.07 -0.68,-2.53l-1.81 -7.71c-0.4,-1.76 -2.18,-8.84 -2.41,-10.33l16.73 8.35 -4.8 5.01zm-13.11 8.05c-1.96,-0.15 -4.1,-0.5 -6.06,-0.74l-11.99 -1.49c-0.98,-0.12 -0.92,0.03 -1.19,-0.49l-1.74 -3.27c-1.53,-2.73 -3.21,-5.98 -4.7,-8.77l-3.52 -6.57c-0.21,-0.37 -1.06,-1.9 -1.14,-2.21 0.31,0.16 0.7,0.53 0.99,0.74 0.34,0.25 0.63,0.49 0.95,0.74l5.68 4.4c2.45,1.83 5.15,4.08 7.59,5.88 1.02,0.76 14.95,11.54 15.13,11.78zm-68.6 3.41c0.3,-0.32 0.64,-0.56 0.93,-0.85 0.23,-0.23 0.28,-0.27 0.49,-0.45l1.42 -1.28c1.34,-1.3 3.56,-3.12 4.72,-4.29l3.83 -3.44c0.22,-0.23 0.28,-0.28 0.49,-0.45l1.42 -1.27c0.19,-0.17 0.28,-0.3 0.48,-0.46l14.24 -12.89c0.18,-0.16 0.29,-0.22 0.46,-0.41l0.95 -0.86c0.33,-0.27 0.6,-0.58 0.94,-0.81l-6.45 18.91c-0.53,1.54 -0.27,1.42 -1.05,1.64 -3.85,1.11 -7.87,2.41 -11.78,3.57l-8.37 2.53c-0.85,0.25 -1.89,0.64 -2.72,0.81zm-1.82 -2.34c0.19,-0.62 1.74,-4.12 2.13,-5.02 0.73,-1.68 1.43,-3.32 2.15,-4.99 1.44,-3.32 2.83,-6.64 4.28,-9.94 0.18,-0.43 0.36,-0.84 0.54,-1.27 0.23,-0.55 0.55,-0.47 1.13,-0.62l8.46 -2.25c0.99,-0.26 10.61,-2.89 11.23,-2.98l-8.43 7.65c-0.2,0.17 -0.24,0.21 -0.45,0.42l-3.76 3.39c-0.21,0.21 -0.26,0.25 -0.46,0.42l-0.92 0.83c-0.17,0.18 -0.28,0.25 -0.47,0.41l-14.95 13.55c-0.18,0.14 -0.28,0.24 -0.48,0.4zm40.78 -27.79c0.39,-0.1 22.68,3.21 25.19,3.57 2.72,0.39 2.22,0.12 2.46,1.17 0.23,0.98 0.46,1.91 0.68,2.89 0.3,1.31 4.09,17.06 4.09,17.48l-6.09 -4.7c-0.67,-0.54 -1.31,-1.03 -2.01,-1.57 -0.67,-0.51 -1.35,-1.02 -2.05,-1.58l-6.07 -4.7c-1.35,-1.06 -2.7,-2.08 -4.05,-3.15 -2.62,-2.09 -5.46,-4.19 -8.11,-6.29l-4.04 -3.12zm-57.39 42.24l0 0.3c0.17,0.36 4.57,33.05 4.96,35.9 0.16,1.19 0.33,2.39 0.49,3.58 0.17,1.25 0.23,2.53 0.31,3.82 0.32,5.14 0.66,10.28 0.99,15.41l2.95 46.16c0.32,5.14 0.74,10.33 0.98,15.47l72.08 0 0.01 -30.38c0.36,-0.22 2.64,-0.83 3.22,-1.01 0.84,-0.26 0.62,-0.17 1.36,-0.77l14 -11.24c0.16,-0.14 0.47,-0.35 0.57,-0.5l14.11 -29.05c0.34,-0.72 0.24,-1.03 0.24,-1.9l0.05 -10.46c0.01,-1.33 0.09,-2.9 0.02,-4.2 -0.03,-0.48 -0.25,-1.29 -0.36,-1.79 -0.12,-0.57 -0.24,-1.14 -0.36,-1.7 -1.25,-5.78 -2.41,-11.62 -3.67,-17.38 -0.11,-0.49 -0.09,-0.38 0.14,-0.77 0.82,-1.45 5.36,-9.95 5.61,-10.19l0 -0.1c-0.35,-0.59 -8.79,-28.66 -9.05,-29.11 -0.08,-0.13 -0.08,-0.11 -0.25,-0.19l-20.47 -10.23c-1.43,-0.72 -1.1,-0.68 -2.6,-0.9 -1,-0.14 -2.01,-0.28 -3.02,-0.43l-24.21 -3.48c-0.9,-0.13 -5.53,-0.68 -6,-0.9l-0.2 0 -4.84 1.33c-7.23,1.84 -14.55,3.95 -21.77,5.8 -1.35,0.35 -1.23,0.27 -1.98,1.08l-2.27 2.38c-0.24,0.26 -0.5,0.48 -0.75,0.75l-1.51 1.56c-0.49,0.5 -0.92,1.07 -1.46,1.54l-3 3.14c-0.14,0.15 -0.28,0.24 -0.42,0.39l-2.59 2.74 -0.95 2.12c-2.14,4.91 -4.45,9.87 -6.58,14.78 -0.61,1.42 -1.24,2.86 -1.89,4.25 -0.29,0.64 -1.67,3.89 -1.89,4.18z"/>
 </g>
</svg>
