<svg width="948" height="225" viewBox="0 0 948 225" fill="none" xmlns="http://www.w3.org/2000/svg">
<path d="M191.447 32.8594L224.335 112.069H224.341L191.453 191.291L112.177 224.151L32.8877 191.291L0 112.081L32.8877 32.8594L112.164 0L191.447 32.8594ZM60.9883 60.9424L9.81934 112.069L60.9824 163.19L112.152 214.317L163.316 163.196L214.486 112.069L163.322 60.9482L112.152 9.82227L60.9883 60.9424ZM131.688 206.827L185.013 184.868L169.381 169.249L131.688 206.827ZM529.976 157.605C534.205 157.605 537.752 159.008 540.615 161.812C543.505 164.617 544.95 167.999 544.95 171.957C544.95 175.915 543.505 179.296 540.615 182.101C537.752 184.905 534.205 186.308 529.976 186.308C525.746 186.308 522.187 184.905 519.297 182.101C516.434 179.296 515.002 175.915 515.002 171.957C515.002 167.999 516.433 164.617 519.297 161.812C522.187 159.008 525.746 157.606 529.976 157.605ZM342.392 171.21L347.908 158.196H354.805L344.559 179.624C342.51 183.949 339.423 186.112 335.299 186.112C334.38 186.112 333.578 186.02 332.896 185.837C332.817 185.811 332.711 185.771 332.58 185.719C332.449 185.693 332.331 185.666 332.226 185.64C332.121 185.587 332.028 185.549 331.949 185.522V180.214C332.212 180.319 332.435 180.385 332.619 180.411C333.145 180.542 333.775 180.607 334.511 180.607C336.402 180.607 337.847 179.624 338.846 177.658L339.239 176.872L328.994 158.196H335.89L342.392 171.21ZM290.373 163.7H277.566V185.719H271.655V158.196H290.373V163.7ZM312.24 158.196C315.156 158.196 317.52 159.061 319.333 160.791C321.172 162.521 322.092 164.736 322.092 167.436C322.092 170.135 321.172 172.35 319.333 174.08C317.52 175.81 315.156 176.676 312.24 176.676H306.526V185.719H300.616V158.196H312.24ZM387.296 185.719H381.385V163.7H369.761V185.719H363.85V158.196H387.296V185.719ZM423.761 185.719H417.851V163.7H406.226V185.719H400.314V158.196H423.761V185.719ZM461.408 185.719H455.104L452.739 179.428H442.1L439.735 185.719H433.431L444.069 158.196H450.769L461.408 185.719ZM489.954 169.991L500.594 158.196H507.687L497.441 169.599L508.475 185.719H501.579L493.501 173.923L489.954 177.658V185.719H484.043V158.196H489.954V169.991ZM570.942 169.991L580.399 158.196H585.719V185.719H579.809V167.633L570.942 178.642L562.076 167.633V185.719H556.165V158.196H561.484L570.942 169.991ZM622.156 185.719H616.246V163.7H604.621V185.719H598.711V158.196H622.156V185.719ZM659.804 185.719H653.499L651.135 179.428H640.495L638.131 185.719H631.826L642.466 158.196H649.164L659.804 185.719ZM675.358 169.009H687.181V158.196H693.091V185.719H687.181V174.513H675.358V185.719H669.448V158.196H675.358V169.009ZM712.016 175.89L725.414 158.196H730.733V185.719H724.822V168.025L711.425 185.719H706.105V158.196H712.016V175.89ZM749.637 175.889L763.034 158.196H768.354V185.719H762.443V168.025L749.045 185.719H743.726V158.196H749.637V175.889ZM39.2988 184.862L54.9307 169.243L17.3213 131.583L39.2988 184.862ZM529.976 163.11C527.506 163.11 525.405 163.975 523.671 165.705C521.963 167.409 521.109 169.493 521.109 171.957C521.109 174.421 521.964 176.517 523.671 178.247C525.405 179.951 527.506 180.803 529.976 180.803C532.445 180.803 534.534 179.951 536.241 178.247C537.975 176.517 538.842 174.421 538.842 171.957C538.842 169.493 537.975 167.409 536.241 165.705C534.534 163.975 532.445 163.11 529.976 163.11ZM135.992 171.447C128.645 174.393 120.617 176.016 112.219 176.016C84.5957 176.015 61.0668 158.512 52.1377 133.995H97.9834L135.992 171.447ZM444.069 174.12H450.769L447.498 165.077H447.34L444.069 174.12ZM642.466 174.12H649.164L645.894 165.077H645.736L642.466 174.12ZM306.526 171.171H312.043C313.225 171.171 314.172 170.83 314.881 170.148C315.616 169.441 315.984 168.536 315.984 167.436C315.984 166.335 315.616 165.443 314.881 164.762C314.172 164.054 313.225 163.7 312.043 163.7H306.526V171.171ZM175.946 107.157C176.072 108.803 176.137 110.467 176.137 112.148C176.137 114.468 176.011 116.759 175.772 119.013C174.334 132.485 168.705 144.699 160.212 154.336C158.368 156.429 156.386 158.398 154.291 160.234C151.11 163.013 147.648 165.483 143.96 167.594L103.855 127.559V109.775L124.466 130.35L175.946 107.157ZM753.577 148.956C753.577 149.638 753.8 150.201 754.247 150.646C754.694 151.092 755.258 151.315 755.941 151.315C756.624 151.315 757.189 151.092 757.636 150.646C758.082 150.201 758.306 149.637 758.306 148.956H762.246C762.246 150.765 761.668 152.232 760.512 153.359C759.356 154.486 757.833 155.051 755.941 155.051C754.05 155.051 752.526 154.486 751.37 153.359C750.214 152.232 749.637 150.765 749.637 148.956H753.577ZM132.583 138.515L146.586 152.529C148.711 150.722 150.692 148.748 152.513 146.631C157.914 140.327 161.865 132.747 163.835 124.404L132.583 138.515ZM703.815 102.855H713.777V130.08H696.196V119.229H646.966V130.08H629.383V102.855H634.072C635.16 101.692 636.238 100.336 637.307 98.7871C638.386 97.2218 639.458 95.4587 640.518 93.499C644.816 84.6102 646.966 74.4345 646.966 62.9727V37.3594H703.815V102.855ZM95.3086 125.374H50.8896V125.338L95.3086 105.225V125.374ZM446.028 35.6055C455.64 35.6055 464.275 38.3351 471.933 43.793C475.215 46.132 478.106 48.8608 480.606 51.9795L468.885 63.6748C467.322 61.6477 465.33 59.6983 462.907 57.8271C457.75 53.9287 452.123 51.9795 446.028 51.9795C438.683 51.9795 432.431 54.5523 427.273 59.6982C422.194 64.7663 419.654 70.9657 419.654 78.2949C419.654 85.6241 422.194 91.8618 427.273 97.0078C432.431 102.076 438.683 104.609 446.028 104.609C452.202 104.609 458.023 102.66 463.493 98.7617C465.994 96.8904 467.987 94.9413 469.472 92.9141L481.192 104.609C478.77 107.572 475.84 110.302 472.401 112.797C464.431 118.255 455.64 120.983 446.028 120.983C433.447 120.983 422.858 116.812 414.263 108.47C405.745 100.127 401.486 90.0684 401.486 78.2949C401.486 66.5213 405.745 56.463 414.263 48.1201C422.859 39.7772 433.447 35.6055 446.028 35.6055ZM371.01 76.0723L387.42 37.3594H407.933L377.457 101.101C371.362 113.966 362.18 120.398 349.911 120.398C347.176 120.398 344.792 120.126 342.761 119.58C342.526 119.502 342.214 119.385 341.823 119.229C341.433 119.152 341.081 119.073 340.769 118.995C340.456 118.839 340.182 118.723 339.947 118.645V102.855C340.729 103.167 341.393 103.362 341.94 103.44C343.503 103.83 345.379 104.024 347.566 104.024C353.193 104.024 357.491 101.101 360.46 95.2529L361.633 92.9141L331.156 37.3594H351.669L371.01 76.0723ZM305.938 37.3594C314.611 37.3594 321.644 39.9331 327.036 45.0791C332.506 50.2251 335.241 56.8138 335.241 64.8447C335.241 72.8756 332.506 79.4643 327.036 84.6104C321.644 89.7563 314.611 92.329 305.938 92.3291H288.94V119.229H271.358V37.3594H305.938ZM522.748 37.3594C531.422 37.3594 538.455 39.9331 543.847 45.0791C549.317 50.2252 552.052 56.8138 552.052 64.8447C552.052 72.8756 549.317 79.4643 543.847 84.6104C538.455 89.7563 531.422 92.329 522.748 92.3291H505.752V119.229H488.169V37.3594H522.748ZM620.586 53.7334H577.216V69.5225H611.209V85.3115H577.216V102.855H621.758V119.229H559.634V37.3594H620.586V53.7334ZM764.795 72.4463L792.927 37.3594H808.751V119.229H791.169V65.4297L764.795 98.1768L738.422 65.4297V119.229H720.84V37.3594H736.664L764.795 72.4463ZM876.74 53.7334H833.37V69.5225H867.363V85.3115H833.37V102.855H877.912V119.229H815.788V37.3594H876.74V53.7334ZM947.749 53.7334H924.306V119.229H906.724V53.7334H883.28V37.3594H947.749V53.7334ZM129.123 118.917H129.117L129.123 118.914V118.917ZM173.542 98.8008L129.123 118.914V98.7656H173.542V98.8008ZM120.567 96.5801V114.363L99.957 93.7891L48.4775 116.981C48.3522 115.336 48.2861 113.672 48.2861 111.99C48.2861 109.67 48.4116 107.38 48.6504 105.126C50.0889 91.654 55.7175 79.4401 64.2109 69.8027C66.0552 67.7095 68.0369 65.7411 70.1318 63.9043C73.3131 61.1253 76.7753 58.657 80.4639 56.5459L120.567 96.5801ZM95.3086 105.225V105.223H95.3145L95.3086 105.225ZM664.547 63.0898C664.547 74.6295 662.595 84.7665 658.688 93.499C656.812 97.4757 654.857 100.594 652.825 102.855H686.232V53.7334H664.547V63.0898ZM77.8369 71.6104C75.7122 73.4172 73.7305 75.3909 71.9102 77.5078C66.5086 83.8114 62.5576 91.3913 60.5879 99.7344L91.8398 85.625L77.8369 71.6104ZM169.387 54.8955L206.995 92.5566L185.019 39.2764L169.387 54.8955ZM112.207 48.1279C139.83 48.128 163.359 65.6309 172.288 90.1475H126.442L88.4336 52.6953C95.781 49.7493 103.809 48.1279 112.207 48.1279ZM288.94 75.9551H305.352C308.868 75.955 311.681 74.9412 313.791 72.9141C315.979 70.809 317.072 68.1192 317.072 64.8447C317.072 61.5701 315.979 58.9188 313.791 56.8916C311.681 54.7865 308.868 53.7335 305.352 53.7334H288.94V75.9551ZM505.752 75.9551H522.162C525.678 75.955 528.492 74.9412 530.602 72.9141C532.789 70.809 533.883 68.1192 533.883 64.8447C533.883 61.5701 532.789 58.9188 530.602 56.8916C528.492 54.7865 525.678 53.7335 522.162 53.7334H505.752V75.9551ZM39.2988 39.2705L54.9307 54.8896L92.623 17.3125L39.2988 39.2705Z" fill="#20344B"/>
</svg>

