<svg xmlns="http://www.w3.org/2000/svg" width="240" height="36" viewBox="0 0 240 36" fill="none"><path d="M3.23828 26.5L3.23828 9.5L18.6192 0.999999M3.23828 26.5L18.6192 35L34.0002 26.5M3.23828 26.5L8.36527 23.6667M18.6192 0.999999L34.0002 9.5V26.5M18.6192 0.999999V6.66667M34.0002 26.5L28.8732 23.6667" stroke="#090809" stroke-width="1.61905" stroke-linejoin="round"></path><path d="M26.7149 18.0005C26.7149 22.4714 23.0905 26.0957 18.6197 26.0957C14.1488 26.0957 10.5244 22.4714 10.5244 18.0005C10.5244 13.5296 14.1488 9.90527 18.6197 9.90527C23.0905 9.90527 26.7149 13.5296 26.7149 18.0005Z" fill="#FF3333"></path><path d="M54.468 24.9034C53.1019 24.9034 51.8648 24.6074 50.7565 24.0152C49.6611 23.4101 48.7976 22.5798 48.1662 21.5241C47.5476 20.4685 47.2383 19.2777 47.2383 17.9517C47.2383 16.6257 47.554 15.4349 48.1855 14.3793C48.817 13.3237 49.6804 12.4998 50.7758 11.9076C51.8841 11.3025 53.1213 11 54.4873 11C55.5956 11 56.6073 11.1931 57.5222 11.5793C58.4372 11.9655 59.2105 12.5255 59.8419 13.2593L58.2182 14.7848C57.2387 13.7292 56.0338 13.2014 54.6033 13.2014C53.6754 13.2014 52.8442 13.4074 52.1096 13.8193C51.3751 14.2184 50.8016 14.7784 50.3892 15.4993C49.9768 16.2202 49.7706 17.0377 49.7706 17.9517C49.7706 18.8657 49.9768 19.6832 50.3892 20.4041C50.8016 21.1251 51.3751 21.6915 52.1096 22.1034C52.8442 22.5025 53.6754 22.7021 54.6033 22.7021C56.0338 22.7021 57.2387 22.1678 58.2182 21.0993L59.8419 22.6441C59.2105 23.3779 58.4308 23.9379 57.5029 24.3241C56.5879 24.7103 55.5763 24.9034 54.468 24.9034Z" fill="#090809"></path><path d="M74.1603 11.1931V24.7103H71.6859V13.3172H64.6689V24.7103H62.1945V11.1931H74.1603Z" fill="#090809"></path><path d="M83.5431 11.1931C84.7158 11.1931 85.7339 11.3862 86.5974 11.7724C87.4737 12.1586 88.1438 12.7122 88.6078 13.4331C89.0717 14.154 89.3037 15.0101 89.3037 16.0014C89.3037 16.9798 89.0717 17.8359 88.6078 18.5697C88.1438 19.2906 87.4737 19.8441 86.5974 20.2303C85.7339 20.6166 84.7158 20.8097 83.5431 20.8097H80.4888V24.7103H77.9758V11.1931H83.5431ZM83.4271 18.6855C84.5225 18.6855 85.3537 18.4538 85.9208 17.9903C86.4878 17.5269 86.7713 16.8639 86.7713 16.0014C86.7713 15.1389 86.4878 14.4759 85.9208 14.0124C85.3537 13.549 84.5225 13.3172 83.4271 13.3172H80.4888V18.6855H83.4271Z" fill="#090809"></path><path d="M102.997 11.1931L97.1202 22.1034C96.6047 23.069 95.9862 23.7963 95.2645 24.2855C94.5557 24.7618 93.7825 25 92.9448 25C92.2747 25 91.611 24.8584 90.9537 24.5752L91.5723 22.6055C92.1007 22.7729 92.5388 22.8566 92.8868 22.8566C93.6987 22.8566 94.3688 22.4382 94.8972 21.6014L95.1098 21.2731L89.7166 11.1931H92.4035L96.405 19.1297L100.522 11.1931H102.997Z" fill="#090809"></path><path d="M114.659 13.3172H110.174V24.7103H107.68V13.3172H103.215V11.1931H114.659V13.3172Z" fill="#090809"></path><path d="M115.315 18.3379H120.631V20.3462H115.315V18.3379Z" fill="#090809"></path><path d="M132.725 13.3172H128.24V24.7103H125.746V13.3172H121.281V11.1931H132.725V13.3172Z" fill="#090809"></path><path d="M143.23 19.6124C143.23 19.7798 143.217 20.0179 143.191 20.3269H135.091C135.233 21.0864 135.6 21.6915 136.193 22.1421C136.799 22.5798 137.546 22.7986 138.436 22.7986C139.57 22.7986 140.504 22.4253 141.239 21.6786L142.534 23.1655C142.07 23.7191 141.483 24.1375 140.775 24.4207C140.066 24.7039 139.267 24.8455 138.378 24.8455C137.244 24.8455 136.245 24.6202 135.381 24.1697C134.518 23.7191 133.848 23.0947 133.371 22.2966C132.907 21.4855 132.675 20.5715 132.675 19.5545C132.675 18.5503 132.901 17.6492 133.352 16.851C133.816 16.04 134.454 15.4092 135.265 14.9586C136.077 14.508 136.992 14.2828 138.01 14.2828C139.016 14.2828 139.911 14.508 140.697 14.9586C141.496 15.3963 142.115 16.0207 142.553 16.8317C143.004 17.6299 143.23 18.5568 143.23 19.6124ZM138.01 16.2138C137.237 16.2138 136.58 16.4455 136.039 16.909C135.51 17.3595 135.188 17.9646 135.072 18.7241H140.929C140.826 17.9775 140.51 17.3724 139.982 16.909C139.454 16.4455 138.796 16.2138 138.01 16.2138Z" fill="#090809"></path><path d="M152.046 24.7103L149.398 21.1379L146.73 24.7103H144.062L148.083 19.4772L144.236 14.3986H146.923L149.456 17.7779L151.988 14.3986H154.598L150.731 19.4386L154.771 24.7103H152.046Z" fill="#090809"></path><path d="M156.501 14.3986H158.917V18.589H164.117V14.3986H166.533V24.7103H164.117V20.6359H158.917V24.7103H156.501V14.3986Z" fill="#090809"></path><path d="M174.372 24.8455C173.329 24.8455 172.388 24.6202 171.55 24.1697C170.712 23.7191 170.055 23.0947 169.578 22.2966C169.114 21.4855 168.882 20.5715 168.882 19.5545C168.882 18.5375 169.114 17.6299 169.578 16.8317C170.055 16.0336 170.712 15.4092 171.55 14.9586C172.388 14.508 173.329 14.2828 174.372 14.2828C175.429 14.2828 176.376 14.508 177.214 14.9586C178.052 15.4092 178.703 16.0336 179.166 16.8317C179.643 17.6299 179.882 18.5375 179.882 19.5545C179.882 20.5715 179.643 21.4855 179.166 22.2966C178.703 23.0947 178.052 23.7191 177.214 24.1697C176.376 24.6202 175.429 24.8455 174.372 24.8455ZM174.372 22.7793C175.262 22.7793 175.996 22.4832 176.576 21.891C177.156 21.2989 177.446 20.52 177.446 19.5545C177.446 18.589 177.156 17.8101 176.576 17.2179C175.996 16.6257 175.262 16.3297 174.372 16.3297C173.483 16.3297 172.749 16.6257 172.169 17.2179C171.602 17.8101 171.318 18.589 171.318 19.5545C171.318 20.52 171.602 21.2989 172.169 21.891C172.749 22.4832 173.483 22.7793 174.372 22.7793Z" fill="#090809"></path><path d="M191.512 14.3986V24.7103H189.095V16.4455H185.229L185.132 18.4924C185.068 19.857 184.939 21.0028 184.746 21.9297C184.565 22.8437 184.25 23.571 183.799 24.1117C183.36 24.6395 182.755 24.9034 181.981 24.9034C181.621 24.9034 181.176 24.8326 180.648 24.691L180.764 22.6634C180.944 22.7021 181.099 22.7214 181.228 22.7214C181.717 22.7214 182.085 22.5283 182.329 22.1421C182.574 21.743 182.729 21.2731 182.793 20.7324C182.871 20.1789 182.935 19.3936 182.987 18.3766L183.161 14.3986H191.512Z" fill="#090809"></path><path d="M199.366 24.8455C198.323 24.8455 197.382 24.6202 196.544 24.1697C195.707 23.7191 195.049 23.0947 194.572 22.2966C194.109 21.4855 193.877 20.5715 193.877 19.5545C193.877 18.5375 194.109 17.6299 194.572 16.8317C195.049 16.0336 195.707 15.4092 196.544 14.9586C197.382 14.508 198.323 14.2828 199.366 14.2828C200.423 14.2828 201.37 14.508 202.208 14.9586C203.046 15.4092 203.697 16.0336 204.161 16.8317C204.637 17.6299 204.876 18.5375 204.876 19.5545C204.876 20.5715 204.637 21.4855 204.161 22.2966C203.697 23.0947 203.046 23.7191 202.208 24.1697C201.37 24.6202 200.423 24.8455 199.366 24.8455ZM199.366 22.7793C200.256 22.7793 200.99 22.4832 201.57 21.891C202.15 21.2989 202.44 20.52 202.44 19.5545C202.44 18.589 202.15 17.8101 201.57 17.2179C200.99 16.6257 200.256 16.3297 199.366 16.3297C198.477 16.3297 197.743 16.6257 197.163 17.2179C196.596 17.8101 196.312 18.589 196.312 19.5545C196.312 20.52 196.596 21.2989 197.163 21.891C197.743 22.4832 198.477 22.7793 199.366 22.7793Z" fill="#090809"></path><path d="M215.188 16.4455H209.679V24.7103H207.263V14.3986H215.188V16.4455Z" fill="#090809"></path><path d="M216.947 14.3986H219.363V21.1959L225.066 14.3986H227.27V24.7103H224.853V17.9131L219.17 24.7103H216.947V14.3986Z" fill="#090809"></path><path d="M239.238 14.3986V24.7103H237.073V21.6014H234.348L232.241 24.7103H229.65L232.086 21.2731C231.338 21.0156 230.765 20.623 230.365 20.0952C229.979 19.5545 229.786 18.8915 229.786 18.1062C229.786 16.9218 230.204 16.0078 231.042 15.3641C231.88 14.7205 233.033 14.3986 234.502 14.3986H239.238ZM234.58 16.4262C233.02 16.4262 232.241 17.012 232.241 18.1834C232.241 19.3421 232.994 19.9214 234.502 19.9214H237.073V16.4262H234.58Z" fill="#090809"></path></svg>