<?xml version="1.0" encoding="UTF-8"?> <svg xmlns="http://www.w3.org/2000/svg" width="1125" height="269" viewBox="0 0 1125 269" fill="none"> <path fill-rule="evenodd" clip-rule="evenodd" d="M451.561 1.57112C401.365 9.37612 360.158 44.3161 343.992 92.7841C335.492 118.266 335.492 150.722 343.992 176.204C355.335 210.211 380.13 238.981 411.462 254.49C423.861 260.628 434.066 264.151 446.78 266.685C458.752 269.071 485.185 269.069 497.172 266.68C537.278 258.688 572.154 232.77 590.813 197.092C601.137 177.349 605.954 157.435 605.954 134.494C605.954 118.565 603.973 105.778 599.379 92.0431C578.647 30.0641 515.781 -8.41288 451.561 1.57112ZM496.396 14.1231C559.636 26.7511 603.092 88.4851 593.505 152.078C580.355 239.315 483.224 284.93 407.759 239.31C380.594 222.888 361.055 196.085 352.188 163.079C349.848 154.369 349.613 151.76 349.613 134.494C349.613 117.228 349.848 114.619 352.188 105.909C359.282 79.5051 372.439 58.0401 391.666 41.5031C420.855 16.4001 458.505 6.55712 496.396 14.1231ZM407.533 67.5651C406.669 68.4301 405.964 69.8921 405.967 70.8151C405.97 71.7391 417.676 85.6971 431.98 101.834C446.284 117.971 458.41 131.963 458.927 132.929C459.59 134.167 459.375 135.393 458.196 137.089C456.91 138.941 430.731 168.786 407.671 194.689C403.973 198.843 408.537 205.096 413.251 202.334C415.264 201.155 464.827 145.151 467.095 141.494C469.474 137.656 469.475 131.336 467.098 127.494C465.169 124.376 415.532 68.0521 413.575 66.7591C411.748 65.5531 409.207 65.8921 407.533 67.5651ZM504.903 94.6831C490.911 110.461 478.449 124.724 477.212 126.377C475.562 128.581 474.962 130.75 474.962 134.51C474.962 140.864 473.64 139.11 505.403 174.895C530.464 203.13 532.565 204.991 535.762 201.794C539.085 198.471 537.286 195.903 510.442 165.668C495.878 149.263 483.962 135.235 483.962 134.494C483.962 133.753 495.878 119.725 510.442 103.32C537.286 73.0851 539.085 70.5171 535.762 67.1941C532.559 63.9911 530.472 65.8501 504.903 94.6831ZM1.16196 69.1941C-0.747042 71.1031 -0.233062 74.7441 2.18494 76.4371C3.98794 77.7001 7.66494 77.9941 21.6849 77.9941H38.9619V132.423C38.9619 180.57 39.143 187.032 40.533 188.423C42.393 190.282 47.0629 190.493 48.7619 188.794C49.6659 187.89 49.9619 174.083 49.9619 132.794V77.9941H69.4619H88.9619V133.994V189.994H132.326H175.689L178.317 187.367L180.944 184.739L181.203 134.158L181.462 83.5771L215.88 135.84C234.81 164.585 251.093 188.529 252.065 189.049C255.31 190.786 259.929 190.118 262.507 187.539L264.962 185.085V127.739C264.962 84.4711 264.667 70.0991 263.762 69.1941C263.102 68.5341 261.167 67.9941 259.462 67.9941C257.757 67.9941 255.822 68.5341 255.162 69.1941C254.259 70.0971 253.962 83.2831 253.962 122.394C253.962 154.637 253.607 174.033 253.028 173.444C252.514 172.922 237.406 150.219 219.455 122.994C201.505 95.7691 185.493 72.2561 183.874 70.7441L180.93 67.9941H91.6459C23.5359 67.9941 2.07696 68.2791 1.16196 69.1941ZM901.063 78.0771C892.49 79.1871 885.297 82.8891 879.213 89.3221C870.41 98.6301 867.003 108.479 866.977 124.695C866.95 141.553 871.151 153.1 880.544 161.984C889.217 170.186 892.952 171.409 909.462 171.455C922.818 171.492 923.749 171.362 929.696 168.614C944.351 161.846 952.927 145.742 952.927 124.994C952.927 109.182 948.224 96.3691 939.333 87.9601C932.989 81.9611 926.957 79.2001 917.504 77.9711C909.588 76.9421 909.832 76.9411 901.063 78.0771ZM169.962 128.994V179.994H134.962H99.9619V155.994V131.994H126.962C152.629 131.994 154.061 131.895 155.962 129.994C158.231 127.725 158.397 126.676 156.927 123.928C155.941 122.087 154.551 121.994 127.927 121.994H99.9619V99.9941V77.9941H134.962H169.962V128.994ZM710.708 79.0191C695.986 82.7251 684.66 94.5391 680.493 110.536C677.39 122.45 678.964 141.198 683.877 150.827C687.331 157.598 694.649 164.715 701.756 168.213C708.118 171.345 708.942 171.494 719.941 171.494C732.8 171.494 734.751 170.853 743.163 163.863L747.864 159.957L748.491 163.726C749.543 170.05 749.476 169.994 755.931 169.994H761.962V145.994V121.994H743.462H724.962V129.494V136.994H734.962C746.188 136.994 746.438 137.204 743.054 143.784C737.801 153.995 726.603 158.364 714.769 154.818C709.131 153.129 702.467 146.874 700.288 141.226C697.719 134.569 697.74 117.566 700.326 110.142C704.413 98.4091 715.858 91.5241 727.236 93.9551C734.295 95.4631 739.384 99.0121 741.561 103.946L743.347 107.994H752.734H762.121L761.418 104.744C759.369 95.2641 751.253 85.8481 741.142 81.2191C736.382 79.0401 733.787 78.5791 724.967 78.3491C719.189 78.1981 712.773 78.5001 710.708 79.0191ZM780.962 124.908V169.994H789.962H798.962V152.494V134.994H810.397C828.969 134.994 829.938 135.933 830.996 154.955C831.389 162.007 832.018 168.276 832.395 168.885C833.045 169.937 853.962 170.583 853.962 169.551C853.962 169.308 853.109 167.62 852.067 165.801C850.591 163.224 850.073 159.844 849.721 150.491C849.219 137.187 848.178 134.045 842.748 129.455C840.287 127.374 839.838 126.555 840.962 126.192C843.834 125.263 849.545 118.33 850.749 114.309C854.701 101.119 849.026 87.4581 837.462 82.3241C834.041 80.8061 829.66 80.4961 807.212 80.1861L780.962 79.8221V124.908ZM967.2 113.744C967.625 151.504 968.036 154.216 974.465 161.727C976.417 164.007 980.589 167.137 983.738 168.683C989.155 171.343 990.186 171.494 1002.98 171.494C1016.21 171.494 1016.64 171.426 1023.12 168.237C1030.92 164.397 1034.48 160.208 1037.1 151.785C1038.76 146.477 1038.96 142.168 1038.96 112.905V79.9941H1029.5H1020.04L1019.75 112.744C1019.43 148.924 1019.34 149.481 1013.06 153.707C1010.45 155.469 1008.27 155.994 1003.56 155.992C995.734 155.99 991.251 153.755 988.531 148.494C986.587 144.736 986.442 142.544 986.138 112.244L985.815 79.9941H976.317H966.82L967.2 113.744ZM1057.96 124.915V169.994H1066.96H1075.96V154.13V138.266L1090.92 137.785C1105.29 137.324 1106.15 137.176 1112.42 134.091C1121.81 129.468 1124.27 125.024 1124.8 111.732C1125.04 105.746 1124.71 100.184 1123.96 97.4931C1122.27 91.4671 1117.1 85.7531 1110.76 82.8961C1105.74 80.6421 1104.19 80.4971 1081.71 80.1751L1057.96 79.8351V124.915ZM919.507 95.4521C923.975 97.3131 930.476 105.215 932.079 110.734C932.884 113.503 933.444 119.885 933.419 125.994C933.383 134.747 932.99 137.364 931.056 141.721C929.019 146.309 921.378 154.917 919.234 155.038C918.81 155.062 916.437 155.477 913.962 155.961C895.71 159.531 883.2 142.596 886.128 118.281C888.465 98.8661 903.315 88.7091 919.507 95.4521ZM827.49 97.1891C830.966 98.7731 832.962 102.872 832.962 108.429C832.962 112.024 832.359 113.638 830.045 116.228L827.128 119.494L813.045 119.84L798.962 120.186V108.09V95.9941H811.915C819.828 95.9941 825.888 96.4591 827.49 97.1891ZM1100.53 97.4581C1105.01 99.3311 1107.42 104.6 1106.59 110.693C1105.33 119.902 1101.62 121.994 1086.56 121.994H1075.96V108.994V95.9941H1086.49C1093.48 95.9941 1098.21 96.4871 1100.53 97.4581Z" fill="#2A2B2A"></path> </svg> 