<?xml version="1.0" encoding="utf-8"?>
<!-- Generator: Adobe Illustrator 24.3.0, SVG Export Plug-In . SVG Version: 6.00 Build 0)  -->
<svg version="1.1" id="Слой_1" xmlns="http://www.w3.org/2000/svg" xmlns:xlink="http://www.w3.org/1999/xlink" x="0px" y="0px"
	 viewBox="0 0 137 57" style="enable-background:new 0 0 137 57;" xml:space="preserve">
<style type="text/css">
	.st0{fill:#414042;}
	.st1{fill:#035FA2;}
	.st2{fill:url(#SVGID_1_);}
	.st3{fill:url(#SVGID_2_);}
	.st4{fill:url(#SVGID_3_);}
	.st5{fill:url(#SVGID_4_);}
	.st6{fill:url(#SVGID_5_);}
	.st7{fill:url(#SVGID_6_);}
	.st8{fill:url(#SVGID_7_);}
</style>
<g>
	<path class="st0" d="M78.3,25.3h-1.1V18h-2.5v-1h6v1h-2.5V25.3z"/>
	<path class="st0" d="M84.3,25.3h-1.1V17h2.4c0.4,0,0.9,0,1.3,0.1c0.4,0.1,0.7,0.3,1,0.5c0.3,0.2,0.5,0.5,0.6,0.8
		c0.2,0.4,0.2,0.8,0.2,1.2c0,0.9-0.3,1.5-0.8,2c-0.6,0.5-1.3,0.7-2.3,0.7h-1.3L84.3,25.3z M84.3,21.2h1.3c0.7,0,1.2-0.1,1.5-0.4
		c0.4-0.3,0.6-0.8,0.5-1.2c0-0.6-0.2-1-0.5-1.2c-0.3-0.3-0.8-0.4-1.5-0.4h-1.3L84.3,21.2z"/>
	<path class="st0" d="M97.8,25.3h-1.1v-6.7l-4,6.7h-1.2V17h1.1v6.7l4-6.7h1.2V25.3z"/>
	<path class="st0" d="M107.4,25.3h-1.1v-3.8h-4.2v3.8h-1.1V17h1.1v3.5h4.2V17h1.1V25.3z"/>
	<path class="st0" d="M117.1,25.3H116v-6.7l-4,6.7h-1.2V17h1.1v6.7l4-6.7h1.2V25.3z"/>
	<path class="st0" d="M123.1,25.3H122V18h-2.5v-1h6v1h-2.5V25.3z"/>
	<path class="st0" d="M134.3,25.3h-1.1v-6.7l-4,6.7H128V17h1.1v6.7l4-6.7h1.2L134.3,25.3z"/>
	<rect x="65.9" y="5.6" class="st0" width="0.6" height="45.9"/>
	<path class="st1" d="M75.7,40.9h-0.9v-6.6h2c0.3,0,0.7,0,1,0.1c0.3,0.1,0.5,0.2,0.8,0.4c0.2,0.2,0.4,0.4,0.5,0.6
		c0.1,0.3,0.2,0.6,0.2,0.9c0,0.6-0.2,1.2-0.7,1.6c-0.4,0.4-1.1,0.5-1.9,0.5h-1V40.9z M75.7,37.6h1c0.4,0,0.9-0.1,1.2-0.3
		c0.3-0.2,0.4-0.6,0.4-1c0-0.4-0.1-0.7-0.4-1c-0.4-0.2-0.8-0.3-1.2-0.3h-1V37.6z"/>
	<path class="st1" d="M84.1,41c-0.4,0-0.9-0.1-1.3-0.2c-0.4-0.2-0.7-0.4-0.9-0.7c-0.3-0.3-0.5-0.7-0.6-1.1c-0.1-0.5-0.2-0.9-0.2-1.4
		c0-0.5,0.1-1,0.2-1.4c0.1-0.4,0.3-0.8,0.6-1.1c0.3-0.3,0.6-0.5,0.9-0.7c0.4-0.2,0.8-0.2,1.2-0.2c0.4,0,0.9,0.1,1.3,0.3
		c0.4,0.2,0.7,0.4,0.9,0.7c0.3,0.3,0.5,0.7,0.6,1.1c0.1,0.4,0.2,0.9,0.2,1.4c0,0.5-0.1,1-0.2,1.5c-0.1,0.4-0.3,0.8-0.6,1.1
		c-0.3,0.3-0.6,0.5-0.9,0.6C84.9,40.9,84.5,41,84.1,41z M84.2,40.2c0.6,0,1.1-0.2,1.5-0.7c0.4-0.4,0.5-1.1,0.5-2
		c0-0.4,0-0.8-0.1-1.2c-0.1-0.3-0.2-0.6-0.4-0.8c-0.2-0.2-0.4-0.4-0.7-0.5c-0.3-0.1-0.6-0.2-0.9-0.2c-0.3,0-0.6,0.1-0.8,0.2
		c-0.3,0.1-0.5,0.3-0.7,0.5c-0.2,0.2-0.3,0.5-0.4,0.8C82,36.7,82,37.1,82,37.5c0,0.4,0,0.8,0.2,1.2c0.1,0.3,0.2,0.6,0.4,0.8
		c0.2,0.2,0.4,0.4,0.7,0.5C83.6,40.1,83.9,40.2,84.2,40.2z"/>
	<path class="st1" d="M93.9,40.7c-0.2,0.1-0.4,0.2-0.6,0.2c-0.3,0-0.5,0.1-0.8,0.1c-0.5,0-0.9-0.1-1.4-0.2c-0.4-0.1-0.7-0.4-1-0.7
		c-0.3-0.3-0.5-0.7-0.7-1.1c-0.2-0.4-0.2-0.9-0.2-1.4c0-0.5,0.1-1,0.2-1.5c0.1-0.4,0.4-0.8,0.7-1.1c0.3-0.3,0.6-0.5,1-0.7
		c0.4-0.2,0.9-0.2,1.3-0.2c0.3,0,0.6,0,0.9,0.1c0.2,0,0.4,0.1,0.6,0.2l-0.2,0.8c-0.2-0.1-0.4-0.1-0.6-0.2c-0.2,0-0.4,0-0.6,0
		c-0.8,0-1.4,0.2-1.8,0.7c-0.4,0.4-0.6,1.1-0.6,2c0,0.4,0.1,0.8,0.2,1.1c0.1,0.3,0.3,0.6,0.5,0.8c0.2,0.2,0.5,0.4,0.8,0.5
		c0.3,0.1,0.7,0.2,1.1,0.2c0.2,0,0.4,0,0.6-0.1c0.2,0,0.4-0.1,0.6-0.2L93.9,40.7z"/>
	<path class="st1" d="M99.9,39.1H97l-0.6,1.8h-0.9l2.5-6.6h0.9l2.5,6.6h-0.9L99.9,39.1z M97.3,38.3h2.3l-1.1-3.1h0L97.3,38.3z"/>
	<path class="st1" d="M104.9,40.9H104V35h-2v-0.8h4.8V35h-2V40.9z"/>
	<path class="st1" d="M111.3,41c-0.4,0-0.9-0.1-1.2-0.2c-0.4-0.2-0.7-0.4-0.9-0.7c-0.3-0.3-0.5-0.7-0.6-1.1
		c-0.1-0.5-0.2-0.9-0.2-1.4c0-0.5,0.1-1,0.2-1.4c0.1-0.4,0.3-0.8,0.6-1.1c0.3-0.3,0.6-0.5,0.9-0.7c0.4-0.2,0.8-0.2,1.2-0.2
		c0.4,0,0.9,0.1,1.3,0.3c0.4,0.2,0.7,0.4,0.9,0.7c0.3,0.3,0.5,0.7,0.6,1.1c0.1,0.4,0.2,0.9,0.2,1.4c0,0.5-0.1,1-0.2,1.5
		c-0.1,0.4-0.3,0.8-0.6,1.1c-0.3,0.3-0.6,0.5-0.9,0.6C112.1,40.9,111.7,41,111.3,41z M111.4,40.2c0.6,0,1.1-0.2,1.5-0.7
		c0.4-0.4,0.5-1.1,0.5-2c0-0.4,0-0.8-0.1-1.2c-0.1-0.3-0.2-0.6-0.4-0.8c-0.2-0.2-0.4-0.4-0.7-0.5c-0.3-0.1-0.6-0.2-0.9-0.2
		c-0.3,0-0.6,0.1-0.8,0.2c-0.3,0.1-0.5,0.3-0.7,0.5c-0.2,0.2-0.3,0.5-0.4,0.8c-0.1,0.4-0.2,0.8-0.2,1.2c0,0.4,0,0.8,0.2,1.2
		c0.1,0.3,0.2,0.6,0.4,0.8c0.2,0.2,0.4,0.4,0.7,0.5C110.8,40.1,111.1,40.2,111.4,40.2z"/>
	<path class="st1" d="M123.1,40.9h-0.9l-0.4-5.2l-1.7,5.2h-0.9l-1.7-5.2l-0.4,5.2h-0.9l0.6-6.6h1l1.8,5.7l1.8-5.7h1L123.1,40.9z"/>
	
		<radialGradient id="SVGID_1_" cx="-8926.7461" cy="-3048.8271" r="77.5931" gradientTransform="matrix(0.1 0 0 -0.1 929.88 -280.0998)" gradientUnits="userSpaceOnUse">
		<stop  offset="0" style="stop-color:#4495D1"/>
		<stop  offset="1" style="stop-color:#15256D"/>
	</radialGradient>
	<path class="st2" d="M34.5,32.4c-2.1,2.4-5.8,2.5-8.1,0.4S23.9,27,26,24.7c2.1-2.4,5.8-2.5,8.1-0.4C36.5,26.4,36.7,30,34.5,32.4
		C34.5,32.4,34.5,32.4,34.5,32.4z"/>
	
		<linearGradient id="SVGID_2_" gradientUnits="userSpaceOnUse" x1="1262.2423" y1="-511.5411" x2="1286.1855" y2="-501.3462" gradientTransform="matrix(0.7071 0.7071 0.7071 -0.7071 -508.4335 -1251.3014)">
		<stop  offset="0" style="stop-color:#4495D1"/>
		<stop  offset="1" style="stop-color:#15256D"/>
	</linearGradient>
	<path class="st3" d="M31.8,8.9c0.5,0.5,0.9,0.9,1.3,1.4c1.4,1.7,2.5,3.5,3.4,5.5c1.4,0.3,2.7,0.4,4.1,0.3h0.2l0.2,0
		c2.8-0.3,6.5-1.3,9.9-4.7c0.1-0.1,0.2-0.2,0.3-0.4c-0.5-0.6-1.1-1.2-1.6-1.8C40-0.5,24.8-1.6,13.8,6.6C22.3,2.5,28.1,5.3,31.8,8.9z
		"/>
	
		<linearGradient id="SVGID_3_" gradientUnits="userSpaceOnUse" x1="1503.0393" y1="457.6743" x2="1526.9827" y2="467.8716" gradientTransform="matrix(0.2588 -0.9659 -0.9659 -0.2588 64.9403 1618.1029)">
		<stop  offset="0" style="stop-color:#4495D1"/>
		<stop  offset="1" style="stop-color:#15256D"/>
	</linearGradient>
	<path class="st4" d="M12.3,36.8c0.2-0.7,0.4-1.3,0.6-1.9c0.7-2,1.8-3.9,3.1-5.7c-0.5-1.3-1.1-2.6-1.8-3.7c0-0.1-0.1-0.1-0.1-0.2
		l-0.1-0.2c-1.6-2.3-4.4-5-9-6.2c-0.2,0-0.3-0.1-0.5-0.1c-0.3,0.8-0.5,1.5-0.8,2.3C0.1,34.3,6.8,48,19.3,53.4
		C11.5,48.2,11,41.7,12.3,36.8z"/>
	
		<linearGradient id="SVGID_4_" gradientUnits="userSpaceOnUse" x1="2109.7173" y1="-168.9394" x2="2133.6604" y2="-158.7444" gradientTransform="matrix(-0.9659 0.2588 0.2588 0.9659 2137.6133 -348.3109)">
		<stop  offset="0" style="stop-color:#4495D1"/>
		<stop  offset="1" style="stop-color:#15256D"/>
	</linearGradient>
	<path class="st5" d="M46.3,39.7c-0.7,0.2-1.3,0.3-1.9,0.4c-2.1,0.4-4.3,0.4-6.4,0.2c-0.9,1-1.7,2.2-2.3,3.4c0,0.1-0.1,0.1-0.1,0.2
		c0,0.1-0.1,0.1-0.1,0.2c-1.2,2.6-2.1,6.3-0.9,10.9c0,0.2,0.1,0.3,0.1,0.5c0.8-0.1,1.6-0.3,2.4-0.5c13.2-3.5,21.7-16.2,20.1-29.8
		C56.5,34.7,51.2,38.3,46.3,39.7z"/>
	
		<linearGradient id="SVGID_5_" gradientUnits="userSpaceOnUse" x1="12.7341" y1="34.6838" x2="23.5865" y2="51.3352" gradientTransform="matrix(1 0 0 -1 0 56.1102)">
		<stop  offset="0" style="stop-color:#4495D1"/>
		<stop  offset="1" style="stop-color:#15256D"/>
	</linearGradient>
	<path class="st6" d="M13.8,6.6c0,0-6,3.7-9.1,11.2C10.5,19,15.2,23.2,17,28.8c0.8-0.5,3.1-2.3,4.6-7.4c1.9-6.1,5.5-10.6,10.1-12.6
		C31.8,8.9,25.9,0.5,13.8,6.6z"/>
	
		<linearGradient id="SVGID_6_" gradientUnits="userSpaceOnUse" x1="33.2645" y1="10.9383" x2="13.7979" y2="8.9539" gradientTransform="matrix(1 0 0 -1 0 56.1102)">
		<stop  offset="0" style="stop-color:#4495D1"/>
		<stop  offset="1" style="stop-color:#15256D"/>
	</linearGradient>
	<path class="st7" d="M32.7,50.6c0-3.1,0.9-7.2,4.3-11.1l0-0.1c-0.6-0.6-2.5-2.1-7.6-0.9c-6.2,1.4-13.1,1.3-17.2-1.8
		c0,0-4.3,9.3,7,16.7c0,0,6.2,3.3,14.2,2.2C33,54,32.7,52.3,32.7,50.6z"/>
	
		<linearGradient id="SVGID_7_" gradientUnits="userSpaceOnUse" x1="45.7969" y1="39.0959" x2="49.7656" y2="19.0621" gradientTransform="matrix(1 0 0 -1 0 56.1102)">
		<stop  offset="0" style="stop-color:#4495D1"/>
		<stop  offset="1" style="stop-color:#15256D"/>
	</linearGradient>
	<path class="st8" d="M52,11.8c-3.1,3.5-7.5,5.5-12.2,5.5c-1.2,0-2.4-0.1-3.6-0.4l-0.1,0c-0.2,0.9-0.4,3.3,3,7
		c4.4,4.7,7.7,10.7,7,15.8c0,0,10.2-0.9,11-14.4C57.2,25.3,57,18.3,52,11.8z"/>
</g>
</svg>
